<?xml version="1.0" encoding="utf-8"?>
<!-- Generator: Adobe Illustrator 26.0.1, SVG Export Plug-In . SVG Version: 6.00 Build 0)  -->
<svg version="1.1" id="图层_1" xmlns="http://www.w3.org/2000/svg" xmlns:xlink="http://www.w3.org/1999/xlink" x="0px" y="0px"
	 viewBox="0 0 1000 1000" style="enable-background:new 0 0 1000 1000;" xml:space="preserve">
<style type="text/css">
	.st0{fill:#9C9D9D;}
	.st1{fill:#EFEFEF;}
	.st2{fill:#FCFCFC;}
	.st3{fill:#FFFFFF;}
	.st4{fill:none;stroke:#231815;stroke-width:2;stroke-miterlimit:10;}
</style>
<g>
	<g>
		<path class="st0" d="M851.8,296.86C886.38,356.62,906.17,426,906.17,500c0,224.32-181.85,406.17-406.17,406.17
			c-150.33,0-281.59-81.67-351.82-203.07l36.3-20.96C247.46,791.02,365.17,864.27,500,864.27c201.18,0,364.27-163.09,364.27-364.27
			c0-66.37-17.75-128.59-48.76-182.18L851.8,296.86z"/>
		<path class="st1" d="M851.8,296.86C781.57,175.49,650.32,93.83,500,93.83C275.68,93.83,93.83,275.68,93.83,500
			c0,73.99,19.78,143.36,54.35,203.1l36.3-20.96c-31-53.58-48.74-115.79-48.74-182.15c0-201.18,163.09-364.27,364.27-364.27
			c134.81,0,252.52,73.23,315.51,182.09L851.8,296.86z"/>
		<path class="st2" d="M797.64,710.16c6.4-9.08,12.36-18.41,17.87-27.98l36.3,20.95c-6.14,10.67-12.79,21.08-19.92,31.2
			L797.64,710.16z"/>
		<path class="st3" d="M202.28,289.84c-6.4,9.08-12.36,18.41-17.87,27.98l-36.3-20.95c6.14-10.67,12.79-21.08,19.92-31.2
			L202.28,289.84z"/>
		<path class="st2" d="M864.26,679.92l-37.58-18.56c15.54-31.41,26.21-64.46,32.11-98.09l41.27,7.28
			C893.49,608.05,881.59,644.9,864.26,679.92z"/>
	</g>
	<circle class="st4" cx="500" cy="500" r="406.58"/>
</g>
</svg>
