<?xml version="1.0" encoding="utf-8"?>
<!-- Generator: Adobe Illustrator 26.0.1, SVG Export Plug-In . SVG Version: 6.00 Build 0)  -->
<svg version="1.1" id="图层_1" xmlns="http://www.w3.org/2000/svg" xmlns:xlink="http://www.w3.org/1999/xlink" x="0px" y="0px"
	 viewBox="0 0 1000 1000" style="enable-background:new 0 0 1000 1000;" xml:space="preserve">
<style type="text/css">
	.st0{opacity:0.7;fill:#595757;}
	.st1{fill:#B7B8B8;stroke:#231815;stroke-miterlimit:10;}
</style>
<path class="st0" d="M533.85,886.89C320,905.6,131.82,747.69,113.11,533.85s139.19-402.03,353.04-420.73
	s402.03,139.19,420.73,353.04S747.69,868.18,533.85,886.89z M602.46,491.04c-4.95-56.61-54.77-98.42-111.39-93.46
	s-98.42,54.77-93.46,111.39s54.77,98.42,111.39,93.46S607.42,547.65,602.46,491.04z M671.33,415.09
	c17.78-1.56,30.93-17.23,29.37-35.01c-1.56-17.78-17.23-30.93-35.01-29.37s-30.93,17.23-29.37,35.01
	C637.88,403.49,653.56,416.64,671.33,415.09z M514.79,669.09c-17.78,1.56-30.93,17.23-29.37,35.01s17.23,30.93,35.01,29.37
	c17.78-1.56,30.93-17.23,29.37-35.01C548.24,680.68,532.57,667.53,514.79,669.09z M310.89,381.75
	c-17.78,1.56-30.93,17.23-29.37,35.01c1.56,17.78,17.23,30.93,35.01,29.37c17.78-1.56,30.93-17.23,29.37-35.01
	C344.34,393.34,328.67,380.19,310.89,381.75z M635.83,181.17c-50.71-21.58-107.3-31.37-166.02-26.23s-112.76,24.61-158.95,54.66
	l0.04,0.06c-38.16,24.78-49.01,75.81-24.23,113.98s75.81,49.01,113.98,24.23l-0.02-0.03c24.28-15.79,52.67-26.03,83.54-28.73
	c30.87-2.7,60.61,2.45,87.26,13.78l-0.01,0.03c41.89,17.78,90.26-1.76,108.04-43.65s-1.76-90.26-43.65-108.04 M155.25,543.31
	c6.67,54.7,26.48,108.6,60.3,156.89s77.69,85.35,126.81,110.32l0.03-0.06c40.55,20.66,90.16,4.54,110.82-36.01
	c20.66-40.55,4.54-90.16-36.01-110.82l-0.02,0.03c-25.82-13.13-48.88-32.6-66.65-57.98c-17.77-25.38-28.19-53.71-31.69-82.46l0.04,0
	c-5.55-45.17-46.66-77.29-91.82-71.74s-77.29,46.66-71.74,91.82 M709.17,778.44c44.04-33.12,80.81-77.24,105.73-130.67
	c24.91-53.43,35.07-109.95,32.14-164.98l-0.07,0c-2.38-45.44-41.15-80.35-86.59-77.97c-45.44,2.38-80.35,41.15-77.97,86.59l0.04,0
	c1.54,28.92-3.8,58.63-16.89,86.71c-13.09,28.08-32.42,51.27-55.57,68.68l-0.02-0.03c-36.34,27.39-43.6,79.05-16.22,115.39
	c27.39,36.34,79.05,43.6,115.39,16.22"/>
<path class="st1" d="M500,888.36c-214.66,0-388.36-173.7-388.36-388.36S285.34,111.64,500,111.64S888.36,285.34,888.36,500
	S714.66,888.36,500,888.36z M602.85,500c0-56.83-45.99-102.82-102.82-102.82S397.22,443.17,397.22,500s45.99,102.82,102.82,102.82
	S602.85,556.83,602.85,500z M678.08,430.34c17.85,0,32.31-14.47,32.31-32.31c0-17.85-14.47-32.31-32.31-32.31
	c-17.85,0-32.31,14.47-32.31,32.31C645.77,415.88,660.24,430.34,678.08,430.34z M500,669.73c-17.85,0-32.31,14.47-32.31,32.31
	c0,17.85,14.47,32.31,32.31,32.31s32.31-14.47,32.31-32.31C532.31,684.2,517.85,669.73,500,669.73z M321.92,365.72
	c-17.85,0-32.31,14.47-32.31,32.31c0,17.85,14.47,32.31,32.31,32.31c17.85,0,32.31-14.47,32.31-32.31
	C354.23,380.18,339.76,365.72,321.92,365.72z M663.1,194.22c-48.63-25.91-104.15-40.6-163.1-40.6s-114.47,14.69-163.1,40.6
	l0.03,0.06c-40.18,21.36-55.43,71.25-34.07,111.43c21.36,40.18,71.25,55.43,111.43,34.07l-0.02-0.03
	c25.56-13.62,54.74-21.34,85.72-21.34s60.16,7.72,85.72,21.34l-0.02,0.03c40.18,21.36,90.07,6.11,111.43-34.07
	s6.11-90.07-34.07-111.43 M152.79,513.1c1.88,55.07,16.92,110.5,46.39,161.55s69.95,91.79,116.71,120.95l0.04-0.06
	c38.59,24.11,89.42,12.38,113.54-26.21c24.11-38.59,12.38-89.42-26.21-113.54l-0.02,0.03c-24.57-15.33-45.85-36.74-61.34-63.57
	s-23.4-55.96-24.38-84.91l0.04,0c-1.59-45.48-39.74-81.06-85.22-79.47s-81.06,39.74-79.47,85.22 M684.11,795.61
	c46.76-29.16,87.24-69.9,116.71-120.95s44.52-106.48,46.39-161.55l-0.07,0c1.59-45.48-33.99-83.63-79.47-85.22
	c-45.48-1.59-83.63,33.99-85.22,79.47l0.04,0c-0.99,28.95-8.89,58.08-24.38,84.91c-15.49,26.83-36.77,48.24-61.34,63.57l-0.02-0.03
	c-38.59,24.11-50.33,74.95-26.21,113.54c24.11,38.59,74.95,50.33,113.54,26.21"/>
</svg>
