<?xml version="1.0" encoding="utf-8"?>
<!-- Generator: Adobe Illustrator 26.0.1, SVG Export Plug-In . SVG Version: 6.00 Build 0)  -->
<svg version="1.1" id="图层_1" xmlns="http://www.w3.org/2000/svg" xmlns:xlink="http://www.w3.org/1999/xlink" x="0px" y="0px"
	 viewBox="0 0 1000 1000" style="enable-background:new 0 0 1000 1000;" xml:space="preserve">
<style type="text/css">
	.st0{fill:#727171;stroke:#231815;stroke-miterlimit:10;}
	.st1{fill:#3E3A39;stroke:#231815;stroke-miterlimit:10;}
	.st2{fill:none;}
	.st3{fill:#F4A91B;stroke:#231815;stroke-width:0.5;stroke-miterlimit:10;}
	.st4{fill:#1EAA39;stroke:#231815;stroke-miterlimit:10;}
	.st5{fill:#0F7038;stroke:#231815;stroke-miterlimit:10;}
	.st6{fill:#A6A6A7;stroke:#231815;stroke-miterlimit:10;}
	.st7{fill:#7B7A7B;stroke:#231815;stroke-miterlimit:10;}
	.st8{fill:#303031;stroke:#EEEEEF;stroke-miterlimit:10;}
	.st9{fill:#C3C4C4;stroke:#231815;stroke-miterlimit:10;}
</style>
<path class="st0" d="M836.33,694.18C729,880.08,491.72,943.66,305.82,836.33S56.34,491.72,163.67,305.82S508.28,56.34,694.18,163.67
	S943.66,508.28,836.33,694.18z M551.43,410.92c-49.22-28.41-112.03-11.58-140.45,37.63c-28.42,49.22-11.58,112.03,37.63,140.45
	s112.03,11.58,140.45-37.63S600.64,439.34,551.43,410.92z M528.72,310.95c8.92-15.45,3.63-35.22-11.83-44.14
	c-15.45-8.92-35.22-3.63-44.14,11.83s-3.63,35.22,11.83,44.14S519.79,326.4,528.72,310.95z M646.99,584.87
	c-8.92,15.45-3.63,35.22,11.83,44.14c15.45,8.92,35.22,3.63,44.14-11.83s3.63-35.22-11.83-44.14
	C675.68,564.12,655.91,569.41,646.99,584.87z M294.67,587.08c-8.92,15.45-3.63,35.22,11.83,44.14s35.22,3.63,44.14-11.83
	s3.63-35.22-11.83-44.14C323.35,566.33,303.59,571.63,294.67,587.08z M316.74,205.86c-46.76,29.16-87.24,69.9-116.71,120.95
	s-44.52,106.48-46.39,161.55l0.07,0c-1.59,45.48,33.99,83.63,79.47,85.22s83.63-33.99,85.22-79.47l-0.04,0
	c0.99-28.95,8.89-58.08,24.38-84.91c15.49-26.83,36.77-48.24,61.34-63.57l0.02,0.03c38.59-24.11,50.33-74.95,26.21-113.54
	s-74.95-50.33-113.54-26.21 M337.74,807.24c48.63,25.91,104.15,40.6,163.1,40.6s114.47-14.69,163.1-40.6l-0.03-0.06
	c40.18-21.36,55.43-71.25,34.07-111.43c-21.36-40.18-71.25-55.43-111.43-34.07l0.02,0.03c-25.56,13.62-54.74,21.34-85.72,21.34
	s-60.16-7.72-85.72-21.34l0.02-0.03c-40.18-21.36-90.07-6.11-111.43,34.07c-21.36,40.18-6.11,90.07,34.07,111.43 M848.06,488.36
	c-1.88-55.07-16.92-110.5-46.39-161.55c-29.48-51.05-69.95-91.79-116.71-120.95l-0.04,0.06c-38.59-24.11-89.42-12.38-113.54,26.21
	S559,321.55,597.59,345.67l0.02-0.03c24.57,15.33,45.85,36.74,61.34,63.57c15.49,26.83,23.4,55.96,24.38,84.91l-0.04,0
	c1.59,45.48,39.74,81.06,85.22,79.47c45.48-1.59,81.06-39.74,79.47-85.22"/>
<g>
	<g>
		<polygon class="st1" points="483.46,251.98 411.75,267.26 399.03,207.55 396.48,195.55 468.18,180.28 		"/>
		<path class="st2" d="M396.48,195.55"/>
		<path class="st3" d="M474.48,188.93l-76.9,28.33c-1.14,0.42-2.42-0.17-2.84-1.31l-1.65-4.48c-0.42-1.14,0.17-2.42,1.31-2.84
			l76.9-28.33c1.14-0.42,2.42,0.17,2.84,1.31l1.65,4.48C476.21,187.23,475.62,188.51,474.48,188.93z"/>
		<path class="st3" d="M477.11,200.64l-76.9,28.33c-1.14,0.42-2.42-0.17-2.84-1.31l-1.65-4.48c-0.42-1.14,0.17-2.42,1.31-2.84
			l76.9-28.33c1.14-0.42,2.42,0.17,2.84,1.31l1.65,4.48C478.84,198.94,478.25,200.22,477.11,200.64z"/>
		<path class="st3" d="M479.61,212.37l-76.9,28.33c-1.14,0.42-2.42-0.17-2.84-1.31l-1.65-4.48c-0.42-1.14,0.17-2.42,1.31-2.84
			l76.9-28.33c1.14-0.42,2.42,0.17,2.84,1.31l1.65,4.48C481.34,210.67,480.75,211.95,479.61,212.37z"/>
		<path class="st3" d="M482.11,224.1l-76.9,28.33c-1.14,0.42-2.42-0.17-2.84-1.31l-1.65-4.48c-0.42-1.14,0.17-2.42,1.31-2.84
			l76.9-28.33c1.14-0.42,2.42,0.17,2.84,1.31l1.65,4.48C483.84,222.4,483.25,223.68,482.11,224.1z"/>
		<path class="st3" d="M484.61,235.83l-76.9,28.33c-1.14,0.42-2.42-0.17-2.84-1.31l-1.65-4.48c-0.42-1.14,0.17-2.42,1.31-2.84
			l76.9-28.33c1.14-0.42,2.42,0.17,2.84,1.31l1.65,4.48C486.34,234.14,485.75,235.41,484.61,235.83z"/>
		<path class="st3" d="M487.11,247.57l-76.9,28.33c-1.14,0.42-2.42-0.17-2.84-1.31l-1.65-4.48c-0.42-1.14,0.17-2.42,1.31-2.84
			l76.9-28.33c1.14-0.42,2.42,0.17,2.84,1.31l1.65,4.48C488.84,245.87,488.25,247.15,487.11,247.57z"/>
		<path class="st3" d="M394.14,196.07l72.42-26.67c2.37-0.87,5.03,0.35,5.9,2.73v0c0.87,2.37-0.35,5.03-2.73,5.9l-72.42,26.67
			c-2.37,0.87-5.03-0.35-5.9-2.73v0C390.54,199.6,391.76,196.94,394.14,196.07"/>
		<path class="st4" d="M494.63,175.06l-124.44,26.51c-1.5,0.32-2.99-0.65-3.31-2.14l-1.26-5.89c-0.32-1.5,0.65-2.99,2.14-3.31
			l124.44-26.51c1.5-0.32,2.99,0.65,3.31,2.14l1.26,5.89C497.1,173.25,496.13,174.74,494.63,175.06z"/>
	</g>
	<g>
		<polygon class="st1" points="361.66,293.48 307.2,342.56 266.33,297.21 258.12,288.1 312.58,239.02 		"/>
		<path class="st2" d="M258.12,288.1"/>
		<path class="st3" d="M322.36,243.37l-52.44,62.98c-0.78,0.93-2.18,1.06-3.11,0.28l-3.67-3.06c-0.93-0.78-1.06-2.18-0.28-3.11
			l52.44-62.98c0.78-0.93,2.18-1.06,3.11-0.28l3.67,3.06C323.01,241.03,323.14,242.43,322.36,243.37z"/>
		<path class="st3" d="M330.49,252.19l-52.44,62.98c-0.78,0.93-2.18,1.06-3.11,0.28l-3.67-3.06c-0.93-0.78-1.06-2.18-0.28-3.11
			l52.44-62.98c0.78-0.93,2.18-1.06,3.11-0.28l3.67,3.06C331.14,249.85,331.27,251.25,330.49,252.19z"/>
		<path class="st3" d="M338.53,261.1l-52.44,62.98c-0.78,0.93-2.18,1.06-3.11,0.28l-3.67-3.06c-0.93-0.78-1.06-2.18-0.28-3.11
			l52.44-62.98c0.78-0.93,2.18-1.06,3.11-0.28l3.67,3.06C339.17,258.76,339.3,260.17,338.53,261.1z"/>
		<path class="st3" d="M346.56,270.01l-52.44,62.98c-0.78,0.93-2.18,1.06-3.11,0.28l-3.67-3.06c-0.93-0.78-1.06-2.18-0.28-3.11
			l52.44-62.98c0.78-0.93,2.18-1.06,3.11-0.28l3.67,3.06C347.21,267.68,347.33,269.08,346.56,270.01z"/>
		<path class="st3" d="M354.59,278.92l-52.44,62.98c-0.78,0.93-2.18,1.06-3.11,0.28l-3.67-3.06c-0.93-0.78-1.06-2.18-0.28-3.11
			l52.44-62.98c0.78-0.93,2.18-1.06,3.11-0.28l3.67,3.06C355.24,276.59,355.37,277.99,354.59,278.92z"/>
		<path class="st3" d="M362.62,287.83l-52.44,62.98c-0.78,0.93-2.18,1.06-3.11,0.28l-3.67-3.06c-0.93-0.78-1.06-2.18-0.28-3.11
			l52.44-62.98c0.78-0.93,2.18-1.06,3.11-0.28l3.67,3.06C363.27,285.5,363.4,286.9,362.62,287.83z"/>
		<path class="st3" d="M256.35,289.72l49.38-59.31c1.62-1.94,4.53-2.21,6.48-0.59h0c1.94,1.62,2.21,4.53,0.59,6.48l-49.38,59.31
			c-1.62,1.94-4.53,2.21-6.48,0.59l0,0C255,294.57,254.74,291.66,256.35,289.72"/>
		<path class="st4" d="M332.88,221.28l-94.51,85.18c-1.14,1.03-2.91,0.93-3.94-0.2l-4.03-4.47c-1.03-1.14-0.93-2.91,0.2-3.94
			l94.51-85.18c1.14-1.03,2.91-0.93,3.94,0.2l4.03,4.47C334.11,218.48,334.02,220.25,332.88,221.28z"/>
	</g>
	<g>
		<polygon class="st1" points="276.94,390.32 254.31,460.05 196.24,441.21 184.58,437.43 207.2,367.7 		"/>
		<path class="st2" d="M184.58,437.43"/>
		<path class="st3" d="M217.84,366.57l-13.92,80.76c-0.21,1.2-1.36,2.01-2.55,1.8l-4.71-0.81c-1.2-0.21-2.01-1.36-1.8-2.55
			L208.78,365c0.21-1.2,1.36-2.01,2.55-1.8l4.71,0.81C217.24,364.22,218.05,365.37,217.84,366.57z"/>
		<path class="st3" d="M229.3,370.14l-13.92,80.76c-0.21,1.2-1.36,2.01-2.55,1.8l-4.71-0.81c-1.2-0.21-2.01-1.36-1.8-2.55
			l13.92-80.76c0.21-1.2,1.36-2.01,2.55-1.8l4.71,0.81C228.69,367.79,229.5,368.94,229.3,370.14z"/>
		<path class="st3" d="M240.71,373.84l-13.92,80.76c-0.21,1.2-1.36,2.01-2.55,1.8l-4.71-0.81c-1.2-0.21-2.01-1.36-1.8-2.55
			l13.92-80.76c0.21-1.2,1.36-2.01,2.55-1.8l4.71,0.81C240.1,371.5,240.91,372.65,240.71,373.84z"/>
		<path class="st3" d="M252.12,377.55l-13.92,80.76c-0.21,1.2-1.36,2.01-2.55,1.8l-4.71-0.81c-1.2-0.21-2.01-1.36-1.8-2.55
			l13.92-80.76c0.21-1.2,1.36-2.01,2.55-1.8l4.71,0.81C251.51,375.2,252.33,376.35,252.12,377.55z"/>
		<path class="st3" d="M263.53,381.25l-13.92,80.76c-0.21,1.2-1.36,2.01-2.55,1.8l-4.71-0.81c-1.2-0.21-2.01-1.36-1.8-2.55
			l13.92-80.76c0.21-1.2,1.36-2.01,2.55-1.8l4.71,0.81C262.93,378.9,263.74,380.05,263.53,381.25z"/>
		<path class="st3" d="M274.94,384.95l-13.92,80.76c-0.21,1.2-1.36,2.01-2.55,1.8l-4.71-0.81c-1.2-0.21-2.01-1.36-1.8-2.55
			l13.92-80.76c0.21-1.2,1.36-2.01,2.55-1.8l4.71,0.81C274.34,382.6,275.15,383.75,274.94,384.95z"/>
		<path class="st3" d="M183.85,439.71l13.11-76.06c0.43-2.49,2.82-4.18,5.31-3.75h0c2.49,0.43,4.18,2.82,3.75,5.31l-13.11,76.06
			c-0.43,2.49-2.82,4.18-5.31,3.75h0C185.11,444.6,183.42,442.21,183.85,439.71"/>
		<path class="st4" d="M215.91,342.18L176.65,463.2c-0.47,1.46-2.05,2.26-3.51,1.79l-5.73-1.86c-1.46-0.47-2.26-2.05-1.79-3.51
			l39.26-121.03c0.47-1.46,2.05-2.26,3.51-1.79l5.73,1.86C215.58,339.14,216.39,340.72,215.91,342.18z"/>
	</g>
	<g>
		<polygon class="st1" points="251.98,516.54 267.26,588.25 207.55,600.97 195.55,603.52 180.28,531.82 		"/>
		<path class="st2" d="M195.55,603.52"/>
		<path class="st3" d="M188.93,525.52l28.33,76.9c0.42,1.14-0.17,2.42-1.31,2.84l-4.48,1.65c-1.14,0.42-2.42-0.17-2.84-1.31
			l-28.33-76.9c-0.42-1.14,0.17-2.42,1.31-2.84l4.48-1.65C187.23,523.79,188.51,524.38,188.93,525.52z"/>
		<path class="st3" d="M200.64,522.89l28.33,76.9c0.42,1.14-0.17,2.42-1.31,2.84l-4.48,1.65c-1.14,0.42-2.42-0.17-2.84-1.31
			L192,526.07c-0.42-1.14,0.17-2.42,1.31-2.84l4.48-1.65C198.94,521.16,200.22,521.75,200.64,522.89z"/>
		<path class="st3" d="M212.37,520.39l28.33,76.9c0.42,1.14-0.17,2.42-1.31,2.84l-4.48,1.65c-1.14,0.42-2.42-0.17-2.84-1.31
			l-28.33-76.9c-0.42-1.14,0.17-2.42,1.31-2.84l4.48-1.65C210.67,518.66,211.95,519.25,212.37,520.39z"/>
		<path class="st3" d="M224.1,517.89l28.33,76.9c0.42,1.14-0.17,2.42-1.31,2.84l-4.48,1.65c-1.14,0.42-2.42-0.17-2.84-1.31
			l-28.33-76.9c-0.42-1.14,0.17-2.42,1.31-2.84l4.48-1.65C222.4,516.16,223.68,516.75,224.1,517.89z"/>
		<path class="st3" d="M235.83,515.39l28.33,76.9c0.42,1.14-0.17,2.42-1.31,2.84l-4.48,1.65c-1.14,0.42-2.42-0.17-2.84-1.31
			l-28.33-76.9c-0.42-1.14,0.17-2.42,1.31-2.84l4.48-1.65C234.14,513.66,235.41,514.25,235.83,515.39z"/>
		<path class="st3" d="M247.57,512.89l28.33,76.9c0.42,1.14-0.17,2.42-1.31,2.84l-4.48,1.65c-1.14,0.42-2.42-0.17-2.84-1.31
			l-28.33-76.9c-0.42-1.14,0.17-2.42,1.31-2.84l4.48-1.65C245.87,511.16,247.15,511.75,247.57,512.89z"/>
		<path class="st3" d="M196.07,605.86l-26.67-72.42c-0.87-2.37,0.35-5.03,2.73-5.9h0c2.37-0.87,5.03,0.35,5.9,2.73l26.67,72.42
			c0.87,2.37-0.35,5.03-2.73,5.9h0C199.6,609.46,196.94,608.24,196.07,605.86"/>
		<path class="st4" d="M175.06,505.37l26.51,124.44c0.32,1.5-0.65,2.99-2.14,3.31l-5.89,1.26c-1.5,0.32-2.99-0.65-3.31-2.14
			l-26.51-124.44c-0.32-1.5,0.65-2.99,2.14-3.31l5.89-1.26C173.25,502.9,174.74,503.87,175.06,505.37z"/>
	</g>
	<g>
		<polygon class="st1" points="293.48,638.34 342.56,692.8 297.21,733.67 288.1,741.88 239.02,687.42 		"/>
		<path class="st2" d="M288.1,741.88"/>
		<path class="st3" d="M243.37,677.64l62.98,52.44c0.93,0.78,1.06,2.18,0.28,3.11l-3.06,3.67c-0.78,0.93-2.18,1.06-3.11,0.28
			l-62.98-52.44c-0.93-0.78-1.06-2.18-0.28-3.11l3.06-3.67C241.03,676.99,242.43,676.86,243.37,677.64z"/>
		<path class="st3" d="M252.19,669.51l62.98,52.44c0.93,0.78,1.06,2.18,0.28,3.11l-3.06,3.67c-0.78,0.93-2.18,1.06-3.11,0.28
			l-62.98-52.44c-0.93-0.78-1.06-2.18-0.28-3.11l3.06-3.67C249.85,668.86,251.25,668.73,252.19,669.51z"/>
		<path class="st3" d="M261.1,661.47l62.98,52.44c0.93,0.78,1.06,2.18,0.28,3.11l-3.06,3.67c-0.78,0.93-2.18,1.06-3.11,0.28
			l-62.98-52.44c-0.93-0.78-1.06-2.18-0.28-3.11l3.06-3.67C258.76,660.83,260.17,660.7,261.1,661.47z"/>
		<path class="st3" d="M270.01,653.44l62.98,52.44c0.93,0.78,1.06,2.18,0.28,3.11l-3.06,3.67c-0.78,0.93-2.18,1.06-3.11,0.28
			l-62.98-52.44c-0.93-0.78-1.06-2.18-0.28-3.11l3.06-3.67C267.68,652.79,269.08,652.67,270.01,653.44z"/>
		<path class="st3" d="M278.92,645.41l62.98,52.44c0.93,0.78,1.06,2.18,0.28,3.11l-3.06,3.67c-0.78,0.93-2.18,1.06-3.11,0.28
			l-62.98-52.44c-0.93-0.78-1.06-2.18-0.28-3.11l3.06-3.67C276.59,644.76,277.99,644.63,278.92,645.41z"/>
		<path class="st3" d="M287.83,637.38l62.98,52.44c0.93,0.78,1.06,2.18,0.28,3.11l-3.06,3.67c-0.78,0.93-2.18,1.06-3.11,0.28
			l-62.98-52.44c-0.93-0.78-1.06-2.18-0.28-3.11l3.06-3.67C285.5,636.73,286.9,636.6,287.83,637.38z"/>
		<path class="st3" d="M289.72,743.65l-59.31-49.38c-1.94-1.62-2.21-4.53-0.59-6.48l0,0c1.62-1.94,4.53-2.21,6.48-0.59l59.31,49.38
			c1.94,1.62,2.21,4.53,0.59,6.48l0,0C294.57,745,291.66,745.26,289.72,743.65"/>
		<path class="st4" d="M221.28,667.12l85.18,94.51c1.03,1.14,0.93,2.91-0.2,3.94l-4.47,4.03c-1.14,1.03-2.91,0.93-3.94-0.2
			l-85.18-94.51c-1.03-1.14-0.93-2.91,0.2-3.94l4.47-4.03C218.48,665.89,220.25,665.98,221.28,667.12z"/>
	</g>
	<g>
		<polygon class="st1" points="390.32,723.06 460.05,745.69 441.21,803.76 437.43,815.42 367.7,792.8 		"/>
		<path class="st2" d="M437.43,815.42"/>
		<path class="st3" d="M366.57,782.16l80.76,13.92c1.2,0.21,2.01,1.36,1.8,2.55l-0.81,4.71c-0.21,1.2-1.36,2.01-2.55,1.8L365,791.22
			c-1.2-0.21-2.01-1.36-1.8-2.55l0.81-4.71C364.22,782.76,365.37,781.95,366.57,782.16z"/>
		<path class="st3" d="M370.14,770.7l80.76,13.92c1.2,0.21,2.01,1.36,1.8,2.55l-0.81,4.71c-0.21,1.2-1.36,2.01-2.55,1.8
			l-80.76-13.92c-1.2-0.21-2.01-1.36-1.8-2.55l0.81-4.71C367.79,771.31,368.94,770.5,370.14,770.7z"/>
		<path class="st3" d="M373.84,759.29l80.76,13.92c1.2,0.21,2.01,1.36,1.8,2.55l-0.81,4.71c-0.21,1.2-1.36,2.01-2.55,1.8
			l-80.76-13.92c-1.2-0.21-2.01-1.36-1.8-2.55l0.81-4.71C371.5,759.9,372.65,759.09,373.84,759.29z"/>
		<path class="st3" d="M377.55,747.88l80.76,13.92c1.2,0.21,2.01,1.36,1.8,2.55l-0.81,4.71c-0.21,1.2-1.36,2.01-2.55,1.8
			l-80.76-13.92c-1.2-0.21-2.01-1.36-1.8-2.55l0.81-4.71C375.2,748.49,376.35,747.67,377.55,747.88z"/>
		<path class="st3" d="M381.25,736.47l80.76,13.92c1.2,0.21,2.01,1.36,1.8,2.55l-0.81,4.71c-0.21,1.2-1.36,2.01-2.55,1.8
			l-80.76-13.92c-1.2-0.21-2.01-1.36-1.8-2.55l0.81-4.71C378.9,737.07,380.05,736.26,381.25,736.47z"/>
		<path class="st3" d="M384.95,725.06l80.76,13.92c1.2,0.21,2.01,1.36,1.8,2.55l-0.81,4.71c-0.21,1.2-1.36,2.01-2.55,1.8
			l-80.76-13.92c-1.2-0.21-2.01-1.36-1.8-2.55l0.81-4.71C382.6,725.66,383.75,724.85,384.95,725.06z"/>
		<path class="st3" d="M439.71,816.15l-76.06-13.11c-2.49-0.43-4.18-2.82-3.75-5.31l0,0c0.43-2.49,2.82-4.18,5.31-3.75l76.06,13.11
			c2.49,0.43,4.18,2.82,3.75,5.31l0,0C444.6,814.89,442.21,816.58,439.71,816.15"/>
		<path class="st4" d="M342.18,784.09l121.03,39.26c1.46,0.47,2.26,2.05,1.79,3.51l-1.86,5.73c-0.47,1.46-2.05,2.26-3.51,1.79
			L338.6,795.12c-1.46-0.47-2.26-2.05-1.79-3.51l1.86-5.73C339.14,784.42,340.72,783.61,342.18,784.09z"/>
	</g>
	<g>
		<polygon class="st1" points="516.54,748.02 588.25,732.74 600.97,792.45 603.52,804.45 531.82,819.72 		"/>
		<path class="st2" d="M603.52,804.45"/>
		<path class="st3" d="M525.52,811.07l76.9-28.33c1.14-0.42,2.42,0.17,2.84,1.31l1.65,4.48c0.42,1.14-0.17,2.42-1.31,2.84
			l-76.9,28.33c-1.14,0.42-2.42-0.17-2.84-1.31l-1.65-4.48C523.79,812.77,524.38,811.49,525.52,811.07z"/>
		<path class="st3" d="M522.89,799.36l76.9-28.33c1.14-0.42,2.42,0.17,2.84,1.31l1.65,4.48c0.42,1.14-0.17,2.42-1.31,2.84
			L526.07,808c-1.14,0.42-2.42-0.17-2.84-1.31l-1.65-4.48C521.16,801.06,521.75,799.78,522.89,799.36z"/>
		<path class="st3" d="M520.39,787.63l76.9-28.33c1.14-0.42,2.42,0.17,2.84,1.31l1.65,4.48c0.42,1.14-0.17,2.42-1.31,2.84
			l-76.9,28.33c-1.14,0.42-2.42-0.17-2.84-1.31l-1.65-4.48C518.66,789.33,519.25,788.05,520.39,787.63z"/>
		<path class="st3" d="M517.89,775.9l76.9-28.33c1.14-0.42,2.42,0.17,2.84,1.31l1.65,4.48c0.42,1.14-0.17,2.42-1.31,2.84
			l-76.9,28.33c-1.14,0.42-2.42-0.17-2.84-1.31l-1.65-4.48C516.16,777.6,516.75,776.32,517.89,775.9z"/>
		<path class="st3" d="M515.39,764.17l76.9-28.33c1.14-0.42,2.42,0.17,2.84,1.31l1.65,4.48c0.42,1.14-0.17,2.42-1.31,2.84
			l-76.9,28.33c-1.14,0.42-2.42-0.17-2.84-1.31l-1.65-4.48C513.66,765.86,514.25,764.59,515.39,764.17z"/>
		<path class="st3" d="M512.89,752.43l76.9-28.33c1.14-0.42,2.42,0.17,2.84,1.31l1.65,4.48c0.42,1.14-0.17,2.42-1.31,2.84
			l-76.9,28.33c-1.14,0.42-2.42-0.17-2.84-1.31l-1.65-4.48C511.16,754.13,511.75,752.85,512.89,752.43z"/>
		<path class="st3" d="M605.86,803.93l-72.42,26.67c-2.37,0.87-5.03-0.35-5.9-2.73v0c-0.87-2.37,0.35-5.03,2.73-5.9l72.42-26.67
			c2.37-0.87,5.03,0.35,5.9,2.73l0,0C609.46,800.4,608.24,803.06,605.86,803.93"/>
		<path class="st4" d="M505.37,824.94l124.44-26.51c1.5-0.32,2.99,0.65,3.31,2.14l1.26,5.89c0.32,1.5-0.65,2.99-2.14,3.31
			l-124.44,26.51c-1.5,0.32-2.99-0.65-3.31-2.14l-1.26-5.89C502.9,826.75,503.87,825.26,505.37,824.94z"/>
	</g>
	<g>
		<polygon class="st1" points="638.34,706.52 692.8,657.44 733.67,702.79 741.88,711.9 687.42,760.98 		"/>
		<path class="st2" d="M741.88,711.9"/>
		<path class="st3" d="M677.64,756.63l52.44-62.98c0.78-0.93,2.18-1.06,3.11-0.28l3.67,3.06c0.93,0.78,1.06,2.18,0.28,3.11
			l-52.44,62.98c-0.78,0.93-2.18,1.06-3.11,0.28l-3.67-3.06C676.99,758.97,676.86,757.57,677.64,756.63z"/>
		<path class="st3" d="M669.51,747.81l52.44-62.98c0.78-0.93,2.18-1.06,3.11-0.28l3.67,3.06c0.93,0.78,1.06,2.18,0.28,3.11
			l-52.44,62.98c-0.78,0.93-2.18,1.06-3.11,0.28l-3.67-3.06C668.86,750.15,668.73,748.75,669.51,747.81z"/>
		<path class="st3" d="M661.47,738.9l52.44-62.98c0.78-0.93,2.18-1.06,3.11-0.28l3.67,3.06c0.93,0.78,1.06,2.18,0.28,3.11
			l-52.44,62.98c-0.78,0.93-2.18,1.06-3.11,0.28l-3.67-3.06C660.83,741.24,660.7,739.83,661.47,738.9z"/>
		<path class="st3" d="M653.44,729.99l52.44-62.98c0.78-0.93,2.18-1.06,3.11-0.28l3.67,3.06c0.93,0.78,1.06,2.18,0.28,3.11
			l-52.44,62.98c-0.78,0.93-2.18,1.06-3.11,0.28l-3.67-3.06C652.79,732.32,652.67,730.92,653.44,729.99z"/>
		<path class="st3" d="M645.41,721.08l52.44-62.98c0.78-0.93,2.18-1.06,3.11-0.28l3.67,3.06c0.93,0.78,1.06,2.18,0.28,3.11
			l-52.44,62.98c-0.78,0.93-2.18,1.06-3.11,0.28l-3.67-3.06C644.76,723.41,644.63,722.01,645.41,721.08z"/>
		<path class="st3" d="M637.38,712.17l52.44-62.98c0.78-0.93,2.18-1.06,3.11-0.28l3.67,3.06c0.93,0.78,1.06,2.18,0.28,3.11
			l-52.44,62.98c-0.78,0.93-2.18,1.06-3.11,0.28l-3.67-3.06C636.73,714.5,636.6,713.1,637.38,712.17z"/>
		<path class="st3" d="M743.65,710.28l-49.38,59.31c-1.62,1.94-4.53,2.21-6.48,0.59l0,0c-1.94-1.62-2.21-4.53-0.59-6.48l49.38-59.31
			c1.62-1.94,4.53-2.21,6.48-0.59l0,0C745,705.43,745.26,708.34,743.65,710.28"/>
		<path class="st4" d="M667.12,778.72l94.51-85.18c1.14-1.03,2.91-0.93,3.94,0.2l4.03,4.47c1.03,1.14,0.93,2.91-0.2,3.94
			l-94.51,85.18c-1.14,1.03-2.91,0.93-3.94-0.2l-4.03-4.47C665.89,781.52,665.98,779.75,667.12,778.72z"/>
	</g>
	<g>
		<polygon class="st1" points="723.06,609.68 745.69,539.95 803.76,558.79 815.42,562.57 792.8,632.3 		"/>
		<path class="st2" d="M815.42,562.57"/>
		<path class="st3" d="M782.16,633.43l13.92-80.76c0.21-1.2,1.36-2.01,2.55-1.8l4.71,0.81c1.2,0.21,2.01,1.36,1.8,2.55L791.22,635
			c-0.21,1.2-1.36,2.01-2.55,1.8l-4.71-0.81C782.76,635.78,781.95,634.63,782.16,633.43z"/>
		<path class="st3" d="M770.7,629.86l13.92-80.76c0.21-1.2,1.36-2.01,2.55-1.8l4.71,0.81c1.2,0.21,2.01,1.36,1.8,2.55l-13.92,80.76
			c-0.21,1.2-1.36,2.01-2.55,1.8l-4.71-0.81C771.31,632.21,770.5,631.06,770.7,629.86z"/>
		<path class="st3" d="M759.29,626.16l13.92-80.76c0.21-1.2,1.36-2.01,2.55-1.8l4.71,0.81c1.2,0.21,2.01,1.36,1.8,2.55l-13.92,80.76
			c-0.21,1.2-1.36,2.01-2.55,1.8l-4.71-0.81C759.9,628.5,759.09,627.35,759.29,626.16z"/>
		<path class="st3" d="M747.88,622.45l13.92-80.76c0.21-1.2,1.36-2.01,2.55-1.8l4.71,0.81c1.2,0.21,2.01,1.36,1.8,2.55l-13.92,80.76
			c-0.21,1.2-1.36,2.01-2.55,1.8l-4.71-0.81C748.49,624.8,747.67,623.65,747.88,622.45z"/>
		<path class="st3" d="M736.47,618.75l13.92-80.76c0.21-1.2,1.36-2.01,2.55-1.8l4.71,0.81c1.2,0.21,2.01,1.36,1.8,2.55l-13.92,80.76
			c-0.21,1.2-1.36,2.01-2.55,1.8l-4.71-0.81C737.07,621.1,736.26,619.95,736.47,618.75z"/>
		<path class="st3" d="M725.06,615.05l13.92-80.76c0.21-1.2,1.36-2.01,2.55-1.8l4.71,0.81c1.2,0.21,2.01,1.36,1.8,2.55l-13.92,80.76
			c-0.21,1.2-1.36,2.01-2.55,1.8l-4.71-0.81C725.66,617.4,724.85,616.25,725.06,615.05z"/>
		<path class="st3" d="M816.15,560.29l-13.11,76.06c-0.43,2.49-2.82,4.18-5.31,3.75l0,0c-2.49-0.43-4.18-2.82-3.75-5.31l13.11-76.06
			c0.43-2.49,2.82-4.18,5.31-3.75l0,0C814.89,555.4,816.58,557.79,816.15,560.29"/>
		<path class="st4" d="M784.09,657.82l39.26-121.03c0.47-1.46,2.05-2.26,3.51-1.79l5.73,1.86c1.46,0.47,2.26,2.05,1.79,3.51
			L795.12,661.4c-0.47,1.46-2.05,2.26-3.51,1.79l-5.73-1.86C784.42,660.86,783.61,659.28,784.09,657.82z"/>
	</g>
	<g>
		<polygon class="st1" points="748.02,483.46 732.74,411.75 792.45,399.03 804.45,396.48 819.72,468.18 		"/>
		<path class="st2" d="M804.45,396.48"/>
		<path class="st3" d="M811.07,474.48l-28.33-76.9c-0.42-1.14,0.17-2.42,1.31-2.84l4.48-1.65c1.14-0.42,2.42,0.17,2.84,1.31
			l28.33,76.9c0.42,1.14-0.17,2.42-1.31,2.84l-4.48,1.65C812.77,476.21,811.49,475.62,811.07,474.48z"/>
		<path class="st3" d="M799.36,477.11l-28.33-76.9c-0.42-1.14,0.17-2.42,1.31-2.84l4.48-1.65c1.14-0.42,2.42,0.17,2.84,1.31
			l28.33,76.9c0.42,1.14-0.17,2.42-1.31,2.84l-4.48,1.65C801.06,478.84,799.78,478.25,799.36,477.11z"/>
		<path class="st3" d="M787.63,479.61l-28.33-76.9c-0.42-1.14,0.17-2.42,1.31-2.84l4.48-1.65c1.14-0.42,2.42,0.17,2.84,1.31
			l28.33,76.9c0.42,1.14-0.17,2.42-1.31,2.84l-4.48,1.65C789.33,481.34,788.05,480.75,787.63,479.61z"/>
		<path class="st3" d="M775.9,482.11l-28.33-76.9c-0.42-1.14,0.17-2.42,1.31-2.84l4.48-1.65c1.14-0.42,2.42,0.17,2.84,1.31
			l28.33,76.9c0.42,1.14-0.17,2.42-1.31,2.84l-4.48,1.65C777.6,483.84,776.32,483.25,775.9,482.11z"/>
		<path class="st3" d="M764.17,484.61l-28.33-76.9c-0.42-1.14,0.17-2.42,1.31-2.84l4.48-1.65c1.14-0.42,2.42,0.17,2.84,1.31
			l28.33,76.9c0.42,1.14-0.17,2.42-1.31,2.84l-4.48,1.65C765.86,486.34,764.59,485.75,764.17,484.61z"/>
		<path class="st3" d="M752.43,487.11l-28.33-76.9c-0.42-1.14,0.17-2.42,1.31-2.84l4.48-1.65c1.14-0.42,2.42,0.17,2.84,1.31
			l28.33,76.9c0.42,1.14-0.17,2.42-1.31,2.84l-4.48,1.65C754.13,488.84,752.85,488.25,752.43,487.11z"/>
		<path class="st3" d="M803.93,394.14l26.67,72.42c0.87,2.37-0.35,5.03-2.73,5.9h0c-2.37,0.87-5.03-0.35-5.9-2.73l-26.67-72.42
			c-0.87-2.37,0.35-5.03,2.73-5.9l0,0C800.4,390.54,803.06,391.76,803.93,394.14"/>
		<path class="st4" d="M824.94,494.63l-26.51-124.44c-0.32-1.5,0.65-2.99,2.14-3.31l5.89-1.26c1.5-0.32,2.99,0.65,3.31,2.14
			l26.51,124.44c0.32,1.5-0.65,2.99-2.14,3.31l-5.89,1.26C826.75,497.1,825.26,496.13,824.94,494.63z"/>
	</g>
	<g>
		<polygon class="st1" points="706.52,361.66 657.44,307.2 702.79,266.33 711.9,258.12 760.98,312.58 		"/>
		<path class="st2" d="M711.9,258.12"/>
		<path class="st3" d="M756.63,322.36l-62.98-52.44c-0.93-0.78-1.06-2.18-0.28-3.11l3.06-3.67c0.78-0.93,2.18-1.06,3.11-0.28
			l62.98,52.44c0.93,0.78,1.06,2.18,0.28,3.11l-3.06,3.67C758.97,323.01,757.57,323.14,756.63,322.36z"/>
		<path class="st3" d="M747.81,330.49l-62.98-52.44c-0.93-0.78-1.06-2.18-0.28-3.11l3.06-3.67c0.78-0.93,2.18-1.06,3.11-0.28
			l62.98,52.44c0.93,0.78,1.06,2.18,0.28,3.11l-3.06,3.67C750.15,331.14,748.75,331.27,747.81,330.49z"/>
		<path class="st3" d="M738.9,338.53l-62.98-52.44c-0.93-0.78-1.06-2.18-0.28-3.11l3.06-3.67c0.78-0.93,2.18-1.06,3.11-0.28
			l62.98,52.44c0.93,0.78,1.06,2.18,0.28,3.11l-3.06,3.67C741.24,339.17,739.83,339.3,738.9,338.53z"/>
		<path class="st3" d="M729.99,346.56l-62.98-52.44c-0.93-0.78-1.06-2.18-0.28-3.11l3.06-3.67c0.78-0.93,2.18-1.06,3.11-0.28
			l62.98,52.44c0.93,0.78,1.06,2.18,0.28,3.11l-3.06,3.67C732.32,347.21,730.92,347.33,729.99,346.56z"/>
		<path class="st3" d="M721.08,354.59l-62.98-52.44c-0.93-0.78-1.06-2.18-0.28-3.11l3.06-3.67c0.78-0.93,2.18-1.06,3.11-0.28
			l62.98,52.44c0.93,0.78,1.06,2.18,0.28,3.11l-3.06,3.67C723.41,355.24,722.01,355.37,721.08,354.59z"/>
		<path class="st3" d="M712.17,362.62l-62.98-52.44c-0.93-0.78-1.06-2.18-0.28-3.11l3.06-3.67c0.78-0.93,2.18-1.06,3.11-0.28
			l62.98,52.44c0.93,0.78,1.06,2.18,0.28,3.11l-3.06,3.67C714.5,363.27,713.1,363.4,712.17,362.62z"/>
		<path class="st3" d="M710.28,256.35l59.31,49.38c1.94,1.62,2.21,4.53,0.59,6.48v0c-1.62,1.94-4.53,2.21-6.48,0.59l-59.31-49.38
			c-1.94-1.62-2.21-4.53-0.59-6.48l0,0C705.43,255,708.34,254.74,710.28,256.35"/>
		<path class="st4" d="M778.72,332.88l-85.18-94.51c-1.03-1.14-0.93-2.91,0.2-3.94l4.47-4.03c1.14-1.03,2.91-0.93,3.94,0.2
			l85.18,94.51c1.03,1.14,0.93,2.91-0.2,3.94l-4.47,4.03C781.52,334.11,779.75,334.02,778.72,332.88z"/>
	</g>
	<g>
		<polygon class="st1" points="609.68,276.94 539.95,254.31 558.79,196.24 562.57,184.58 632.3,207.2 		"/>
		<path class="st2" d="M562.57,184.58"/>
		<path class="st3" d="M633.43,217.84l-80.76-13.92c-1.2-0.21-2.01-1.36-1.8-2.55l0.81-4.71c0.21-1.2,1.36-2.01,2.55-1.8L635,208.78
			c1.2,0.21,2.01,1.36,1.8,2.55l-0.81,4.71C635.78,217.24,634.63,218.05,633.43,217.84z"/>
		<path class="st3" d="M629.86,229.3l-80.76-13.92c-1.2-0.21-2.01-1.36-1.8-2.55l0.81-4.71c0.21-1.2,1.36-2.01,2.55-1.8l80.76,13.92
			c1.2,0.21,2.01,1.36,1.8,2.55l-0.81,4.71C632.21,228.69,631.06,229.5,629.86,229.3z"/>
		<path class="st3" d="M626.16,240.71l-80.76-13.92c-1.2-0.21-2.01-1.36-1.8-2.55l0.81-4.71c0.21-1.2,1.36-2.01,2.55-1.8
			l80.76,13.92c1.2,0.21,2.01,1.36,1.8,2.55l-0.81,4.71C628.5,240.1,627.35,240.91,626.16,240.71z"/>
		<path class="st3" d="M622.45,252.12l-80.76-13.92c-1.2-0.21-2.01-1.36-1.8-2.55l0.81-4.71c0.21-1.2,1.36-2.01,2.55-1.8
			l80.76,13.92c1.2,0.21,2.01,1.36,1.8,2.55l-0.81,4.71C624.8,251.51,623.65,252.33,622.45,252.12z"/>
		<path class="st3" d="M618.75,263.53l-80.76-13.92c-1.2-0.21-2.01-1.36-1.8-2.55l0.81-4.71c0.21-1.2,1.36-2.01,2.55-1.8
			l80.76,13.92c1.2,0.21,2.01,1.36,1.8,2.55l-0.81,4.71C621.1,262.93,619.95,263.74,618.75,263.53z"/>
		<path class="st3" d="M615.05,274.94l-80.76-13.92c-1.2-0.21-2.01-1.36-1.8-2.55l0.81-4.71c0.21-1.2,1.36-2.01,2.55-1.8
			l80.76,13.92c1.2,0.21,2.01,1.36,1.8,2.55l-0.81,4.71C617.4,274.34,616.25,275.15,615.05,274.94z"/>
		<path class="st3" d="M560.29,183.85l76.06,13.11c2.49,0.43,4.18,2.82,3.75,5.31v0c-0.43,2.49-2.82,4.18-5.31,3.75l-76.06-13.11
			c-2.49-0.43-4.18-2.82-3.75-5.31v0C555.4,185.11,557.79,183.42,560.29,183.85"/>
		<path class="st4" d="M657.82,215.91L536.8,176.65c-1.46-0.47-2.26-2.05-1.79-3.51l1.86-5.73c0.47-1.46,2.05-2.26,3.51-1.79
			l121.03,39.26c1.46,0.47,2.26,2.05,1.79,3.51l-1.86,5.73C660.86,215.58,659.28,216.39,657.82,215.91z"/>
	</g>
	<path class="st5" d="M551.59,742.16c-133.74,28.49-265.26-56.82-293.75-190.56s56.82-265.26,190.56-293.75
		s265.26,56.82,293.75,190.56C770.65,582.15,685.33,713.66,551.59,742.16z M729.49,451.11c-27-126.74-151.64-207.6-278.38-180.59
		c-126.74,27-207.6,151.64-180.59,278.38c27,126.74,151.64,207.6,278.38,180.59C675.64,702.48,756.49,577.85,729.49,451.11z"/>
	<path class="st6" d="M548.89,729.49c-126.74,27-251.38-53.85-278.38-180.59c-27-126.74,53.85-251.38,180.59-278.38
		c126.74-27,251.38,53.85,278.38,180.59C756.49,577.85,675.64,702.48,548.89,729.49z M717.48,453.66
		c-25.59-120.11-143.7-196.73-263.81-171.14c-120.11,25.59-196.73,143.7-171.14,263.81c25.59,120.11,143.7,196.73,263.81,171.14
		C666.45,691.89,743.07,573.77,717.48,453.66z"/>
	<path class="st7" d="M282.52,546.34c-25.59-120.11,51.03-238.22,171.14-263.81s238.22,51.03,263.81,171.14
		c25.59,120.11-51.03,238.22-171.14,263.81C426.23,743.07,308.11,666.45,282.52,546.34z M659,466.12
		C640.29,378.31,553.94,322.29,466.12,341S322.29,446.06,341,533.88S446.06,677.71,533.88,659S677.71,553.94,659,466.12z"/>
	<circle class="st8" cx="500" cy="500" r="161.49"/>
	<path class="st9" d="M404.79,520.29c-11.2-52.58,22.34-104.29,74.93-115.5c52.58-11.2,104.29,22.34,115.5,74.93
		c11.2,52.58-22.34,104.29-74.93,115.5S415.99,572.87,404.79,520.29z M523.1,608.43c59.88-12.76,98.09-71.65,85.33-131.53
		s-71.65-98.09-131.53-85.33s-98.09,71.65-85.33,131.53C404.33,582.99,463.22,621.19,523.1,608.43z"/>
</g>
</svg>
